<?xml version="1.0" encoding="UTF-8" standalone="no"?>
<!-- Created with Inkscape (http://www.inkscape.org/) -->
<svg
   xmlns:svg="http://www.w3.org/2000/svg"
   xmlns="http://www.w3.org/2000/svg"
   version="1.0"
   width="55"
   height="55"
   id="Icon">
  <defs
     id="defs8" />
  <path
     d="M 34.375,21.380243 L 34.375,24.161493 L 32.78125,24.161493 C 32.46956,26.042253 30.844028,27.473993 28.875,27.473993 L 25.4375,27.473993 L 25.4375,30.286493 L 23.90625,30.286493 L 23.90625,35.723993 C 23.90625,37.915607 25.683386,39.692745 27.875,39.692743 L 34.5,39.692743 C 34.491658,42.944516 40.015681,47.109178 46.5,47.036493 C 43.70175,44.21525 42.387418,42.514159 42.46875,39.630243 C 42.468759,39.629935 42.494089,39.630562 42.5,39.630243 C 42.831553,39.620688 45.419079,39.607511 45.59375,39.598993 C 47.375422,39.213029 48.718749,37.624532 48.71875,35.723993 L 48.71875,25.348993 C 48.71875,23.260111 47.141653,21.5351 45.09375,21.380243 C 44.993032,21.372627 44.883983,21.380244 44.78125,21.380243 L 34.375,21.380243 z "
     style="fill:#cccccc;fill-opacity:1;fill-rule:nonzero;stroke:none;stroke-width:3.125;stroke-linecap:round;stroke-linejoin:round;stroke-miterlimit:4;stroke-dasharray:none;stroke-dashoffset:0;stroke-opacity:1"
     id="path2382" />
  <path
     d="M 9.59375,9.1614934 C 7.705543,9.4657464 6.28125,11.153569 6.28125,13.130243 L 6.28125,23.505243 C 6.28125,25.405784 7.624577,26.994279 9.40625,27.380243 C 9.60942,27.389107 11.177728,27.402238 11.28125,27.411493 C 11.362583,30.295411 10.235749,31.996503 7.4375,34.817743 C 13.921817,34.89043 18.727092,30.725766 18.71875,27.473993 L 22.4375,27.473993 L 22.4375,24.536493 L 24,24.536493 C 24.370119,22.728126 25.957338,21.380243 27.875,21.380243 L 31.25,21.380243 L 31.25,18.473993 L 32.84375,18.473993 L 32.84375,13.130243 C 32.843751,10.93863 31.066614,9.1614934 28.875,9.1614934 L 10.21875,9.1614934 C 10.11602,9.1614944 10.006966,9.1538784 9.90625,9.1614934 C 9.90325,9.1617204 9.881376,9.1615644 9.875,9.1614934 C 9.86987,9.1613694 9.849073,9.1613924 9.84375,9.1614934 C 9.838858,9.1612924 9.817597,9.1615094 9.8125,9.1614934 C 9.80611,9.1613754 9.784217,9.1611594 9.78125,9.1614934 C 9.769558,9.1618874 9.730555,9.1622134 9.71875,9.1614934 C 9.714844,9.1614554 9.691376,9.1612944 9.6875,9.1614934 C 9.6573,9.1656284 9.623722,9.1566644 9.59375,9.1614934 z "
     style="fill:#cccccc;fill-opacity:1;fill-rule:nonzero;stroke:none;stroke-width:3.125;stroke-linecap:round;stroke-linejoin:round;stroke-miterlimit:4;stroke-dasharray:none;stroke-dashoffset:0;stroke-opacity:1"
     id="path2343" />
  <path
     d="M 9.65625,7.5989934 C 6.86076,7.8798354 4.71875,10.297571 4.71875,13.130243 L 4.71875,23.505243 C 4.718749,25.991095 6.402641,28.074645 8.6875,28.755243 C 8.689971,28.757767 8.718747,28.786492 8.71875,28.786493 C 8.718823,28.786528 8.96862,28.880207 8.96875,28.880243 C 8.971459,28.879964 8.997368,28.880316 9,28.880243 C 9.00637,28.884121 9.02293,28.906588 9.03125,28.911493 C 9.034297,28.912979 9.059151,28.910286 9.0625,28.911493 C 9.06743,28.912033 9.089047,28.911383 9.09375,28.911493 C 9.098165,28.911306 9.120933,28.911845 9.125,28.911493 C 9.12819,28.911207 9.153589,28.911548 9.15625,28.911493 C 9.164767,28.912759 9.179937,28.909987 9.1875,28.911493 C 9.200835,28.914772 9.239895,28.93957 9.25,28.942743 C 9.253671,28.94385 9.278182,28.942036 9.28125,28.942743 C 9.291345,28.943548 9.306039,28.942648 9.3125,28.942743 C 9.316756,28.942497 9.340271,28.942961 9.34375,28.942743 C 9.349258,28.942984 9.369787,28.942846 9.375,28.942743 C 9.269676,29.395669 9.305672,29.934727 9.0625,30.380243 C 8.564947,31.291811 7.706305,32.350243 6.34375,33.723993 C 6.336968,33.730905 6.319135,33.748228 6.3125,33.755243 C 6.273583,33.797944 6.221019,33.865425 6.1875,33.911493 C 6.171195,33.934784 6.139933,33.981222 6.125,34.005243 C 6.105702,34.037577 6.079326,34.096774 6.0625,34.130243 C 6.046296,34.163973 6.013696,34.220559 6,34.255243 C 5.921613,34.464644 5.890445,34.718535 5.90625,34.942743 C 5.912872,35.017459 5.919919,35.118842 5.9375,35.192743 C 5.954096,35.257246 5.974825,35.348556 6,35.411493 C 6.021578,35.465439 6.06678,35.517287 6.09375,35.567743 C 6.112303,35.600974 6.135482,35.66119 6.15625,35.692743 C 6.188204,35.739423 6.24472,35.806375 6.28125,35.848993 C 6.293668,35.862964 6.330862,35.898 6.34375,35.911493 C 6.350309,35.918118 6.368328,35.936241 6.375,35.942743 C 6.503877,36.063928 6.681591,36.183643 6.84375,36.255243 C 6.88679,36.273332 6.955268,36.303518 7,36.317743 C 7.126116,36.355352 7.270757,36.375658 7.40625,36.380243 C 10.986263,36.420374 14.147925,35.295394 16.4375,33.661493 C 18.216067,32.392262 19.520141,30.804708 20.03125,29.036493 L 28.875,29.036493 C 31.676938,29.036493 34.027005,26.904872 34.375,24.192743 L 31.1875,24.192743 C 30.894986,25.191461 29.977367,25.911493 28.875,25.911493 L 18.71875,25.911493 C 17.855841,25.911579 17.156336,26.611084 17.15625,27.473993 C 17.158441,28.327897 16.327766,29.892804 14.59375,31.130243 C 13.6585,31.797662 12.484125,32.339838 11.15625,32.723993 C 11.315979,32.485754 11.583369,32.221697 11.75,31.973993 C 11.767072,31.947488 11.798107,31.906613 11.8125,31.880243 C 12.556356,30.517421 12.89038,29.033647 12.84375,27.380243 C 12.843749,27.380204 12.156308,26.099032 12.15625,26.098993 C 12.156192,26.098954 11.781365,25.942782 11.78125,25.942743 C 11.78102,25.942665 11.573064,25.887458 11.53125,25.880243 C 11.489436,25.873027 11.455394,25.854742 11.4375,25.848993 C 11.434363,25.848043 11.409132,25.849623 11.40625,25.848993 C 11.394638,25.847955 11.381653,25.849122 11.375,25.848993 C 11.371197,25.849305 11.346811,25.848708 11.34375,25.848993 C 11.326045,25.848148 11.296375,25.848677 11.28125,25.848993 C 11.27377,25.849086 11.257773,25.849203 11.25,25.848993 C 11.187813,25.847314 11.090733,25.850535 11,25.848993 C 10.818533,25.845909 10.579437,25.852138 10.34375,25.848993 C 10.108063,25.845848 9.89148,25.820564 9.71875,25.817743 C 9.694074,25.81734 9.678181,25.818134 9.65625,25.817743 C 8.618214,25.559845 7.84375,24.65115 7.84375,23.505243 L 7.84375,13.130243 C 7.84375,11.830114 8.79628,10.817379 10.03125,10.723993 C 10.063236,10.723418 10.128773,10.723994 10.21875,10.723993 L 28.875,10.723993 C 30.218838,10.723993 31.281251,11.786406 31.28125,13.130243 L 31.28125,18.567743 L 34.40625,18.567743 L 34.40625,13.130243 C 34.406252,10.090854 31.91439,7.5989934 28.875,7.5989934 L 10.21875,7.5989934 C 10.169421,7.5954694 10.010743,7.5816424 9.78125,7.5989934 C 9.736549,7.6023734 9.700623,7.5945354 9.65625,7.5989934 z "
     style="fill:#000000;fill-opacity:1;fill-rule:nonzero;stroke:none;stroke-width:3.125;stroke-linecap:round;stroke-linejoin:round;stroke-miterlimit:4;stroke-dasharray:none;stroke-dashoffset:0;stroke-opacity:1"
     id="path2319" />
  <path
     d="M 27.53125,19.817743 C 24.888421,19.986987 22.70825,22.064283 22.375,24.661493 L 25.5625,24.661493 C 25.855014,23.662774 26.772632,22.942743 27.875,22.942743 L 44.78125,22.942743 C 44.82624,22.942743 44.875482,22.945313 44.90625,22.942743 C 44.913032,22.941999 44.931637,22.943564 44.9375,22.942743 C 44.94737,22.940993 44.962643,22.913315 44.96875,22.911493 C 44.971548,22.911941 44.998199,22.910908 45,22.911493 C 46.220901,23.018843 47.15625,24.059021 47.15625,25.348993 L 47.15625,35.723993 C 47.15625,36.870204 46.382207,37.778883 45.34375,38.036493 C 45.340953,38.036224 45.315155,38.036566 45.3125,38.036493 C 45.244097,38.037336 45.186162,38.035581 45.09375,38.036493 C 44.803312,38.039359 44.421564,38.033349 44.03125,38.036493 C 43.640936,38.039637 43.233035,38.033462 42.9375,38.036493 C 42.808204,38.037819 42.708457,38.061315 42.625,38.067743 C 42.619158,38.068032 42.599487,38.06765 42.59375,38.067743 C 42.547853,38.068491 42.504696,38.066707 42.46875,38.067743 C 42.464551,38.067632 42.442187,38.067884 42.4375,38.067743 C 42.431543,38.067784 42.414259,38.06731 42.40625,38.067743 C 42.400853,38.067351 42.382404,38.068143 42.375,38.067743 C 42.370682,38.067653 42.348762,38.067647 42.34375,38.067743 C 42.337969,38.068099 42.319128,38.067051 42.3125,38.067743 C 42.269974,38.075034 42.156582,38.098925 42.15625,38.098993 C 42.15606,38.099032 41.906346,38.161454 41.90625,38.161493 C 41.906154,38.161532 40.906251,39.567704 40.90625,39.567743 C 40.858722,41.253034 41.272002,42.778232 42.0625,44.130243 C 42.072016,44.146519 42.083171,44.176407 42.09375,44.192743 C 42.254151,44.429979 42.52786,44.683145 42.6875,44.911493 C 41.272764,44.521948 39.949219,43.970665 38.90625,43.286493 C 36.981433,42.023843 36.0606,40.433391 36.0625,39.692743 C 36.062414,38.829834 35.362909,38.130329 34.5,38.130243 L 27.875,38.130243 C 26.531162,38.130244 25.46875,37.067831 25.46875,35.723993 L 25.46875,30.286493 L 22.34375,30.286493 L 22.34375,35.723993 C 22.34375,38.763383 24.835609,41.255246 27.875,41.255243 L 33.21875,41.255243 C 33.788509,43.083335 35.295612,44.649944 37.21875,45.911493 C 39.671078,47.520183 42.91935,48.63913 46.5,48.598993 C 46.579856,48.599456 46.672619,48.579087 46.75,48.567743 C 46.836621,48.553378 46.949369,48.533476 47.03125,48.505243 C 47.229886,48.432615 47.440124,48.305832 47.59375,48.161493 C 47.683008,48.074485 47.776741,47.956674 47.84375,47.848993 C 47.883816,47.781827 47.938647,47.704209 47.96875,47.630243 C 48.036481,47.463818 48.054073,47.272012 48.0625,47.098993 C 48.068302,46.90681 48.032001,46.685896 47.96875,46.505243 C 47.952101,46.460353 47.927039,46.392333 47.90625,46.348993 C 47.850067,46.237212 47.770791,46.102388 47.6875,46.005243 C 47.674372,45.990505 47.638751,45.957051 47.625,45.942743 C 47.617969,45.9357 47.600936,45.918422 47.59375,45.911493 C 46.219609,44.526061 45.289299,43.490122 44.75,42.567743 C 44.489223,42.121729 44.522863,41.602053 44.40625,41.161493 C 44.663638,41.159391 44.924986,41.163467 45.125,41.161493 C 45.272836,41.160034 45.408502,41.162891 45.5,41.161493 C 45.522875,41.161144 45.549125,41.161291 45.5625,41.161493 C 45.569344,41.161504 45.585062,41.161723 45.59375,41.161493 C 45.598164,41.161582 45.620081,41.161376 45.625,41.161493 C 45.630858,41.161463 45.649018,41.161846 45.65625,41.161493 C 45.665156,41.157536 45.705374,41.135528 45.71875,41.130243 C 45.721392,41.129683 45.747265,41.130665 45.75,41.130243 C 45.784663,41.129261 45.874642,41.130305 45.875,41.130243 C 45.879911,41.126799 45.896243,41.104247 45.90625,41.098993 C 45.909953,41.097338 45.933528,41.100402 45.9375,41.098993 C 45.980424,41.089694 46.01996,41.07804 46.0625,41.067743 C 46.062504,41.067742 46.091593,41.038405 46.09375,41.036493 C 48.497892,40.434968 50.281249,38.293422 50.28125,35.723993 L 50.28125,25.348993 C 50.28125,22.471358 48.048338,20.034071 45.1875,19.817743 C 44.957993,19.800388 44.824594,19.814218 44.78125,19.817743 L 27.875,19.817743 C 27.756274,19.817743 27.648189,19.810254 27.53125,19.817743 z "
     style="fill:#000000;fill-opacity:1;fill-rule:nonzero;stroke:none;stroke-width:3.125;stroke-linecap:round;stroke-linejoin:round;stroke-miterlimit:4;stroke-dasharray:none;stroke-dashoffset:0;stroke-opacity:1"
     id="path2321" />
</svg>
